<svg width="69" height="69" viewBox="0 0 69 69" fill="none" xmlns="http://www.w3.org/2000/svg">
<path d="M38.7408 4.81564C38.7408 2.47004 36.8458 0.575012 34.5002 0.575012C32.1546 0.575012 30.2596 2.47004 30.2596 4.81564V6.33961C30.2596 12.9523 22.2686 16.2653 17.5907 11.5874L16.504 10.514C14.8475 8.85748 12.1707 8.85748 10.5142 10.514C8.85767 12.1705 8.85767 14.8606 10.5142 16.5171L11.6008 17.6038C16.2655 22.2685 12.9525 30.2594 6.33979 30.2594H4.81582C2.47022 30.2594 0.575195 32.1544 0.575195 34.5C0.575195 36.8456 2.47022 38.7406 4.81582 38.7406H6.33979C12.9525 38.7406 16.2655 46.7316 11.5876 51.4095L10.5142 52.4962C8.85767 54.1527 8.85767 56.8428 10.5142 58.4993C12.1707 60.1558 14.8608 60.1558 16.5173 58.4993L17.604 57.4126C22.2819 52.7347 30.2728 56.0477 30.2728 62.6604V64.1844C30.2728 66.53 32.1679 68.425 34.5134 68.425C36.859 68.425 38.7541 66.53 38.7541 64.1844V62.6604C38.7541 56.0477 46.745 52.7347 51.4229 57.4126L52.5096 58.4993C54.1661 60.1558 56.8562 60.1558 58.5127 58.4993C60.1692 56.8428 60.1692 54.1527 58.5127 52.4962L57.4261 51.4095C52.7481 46.7316 56.0611 38.7406 62.6738 38.7406H64.1846C66.5302 38.7406 68.4252 36.8456 68.4252 34.5C68.4252 32.1544 66.5302 30.2594 64.1846 30.2594H62.6606C56.0479 30.2594 52.7349 22.2685 57.4128 17.5905L58.4995 16.5039C60.156 14.8474 60.156 12.1572 58.4995 10.5007C56.843 8.84423 54.1528 8.84423 52.4963 10.5007L51.4097 11.5874C46.7317 16.2653 38.7408 12.9523 38.7408 6.33961V4.81564ZM23.8986 30.2594C23.8986 29.4241 24.0632 28.5969 24.3828 27.8252C24.7025 27.0534 25.171 26.3522 25.7617 25.7615C26.3524 25.1709 27.0536 24.7023 27.8253 24.3826C28.5971 24.063 29.4242 23.8984 30.2596 23.8984C31.0949 23.8984 31.9221 24.063 32.6938 24.3826C33.4655 24.7023 34.1668 25.1709 34.7574 25.7615C35.3481 26.3522 35.8166 27.0534 36.1363 27.8252C36.456 28.5969 36.6205 29.4241 36.6205 30.2594C36.6205 31.0947 36.456 31.9219 36.1363 32.6936C35.8166 33.4654 35.3481 34.1666 34.7574 34.7572C34.1668 35.3479 33.4655 35.8165 32.6938 36.1361C31.9221 36.4558 31.0949 36.6203 30.2596 36.6203C29.4242 36.6203 28.5971 36.4558 27.8253 36.1361C27.0536 35.8165 26.3524 35.3479 25.7617 34.7572C25.171 34.1666 24.7025 33.4654 24.3828 32.6936C24.0632 31.9219 23.8986 31.0947 23.8986 30.2594ZM40.8611 37.6805C41.7046 37.6805 42.5136 38.0156 43.1101 38.612C43.7065 39.2085 44.0416 40.0174 44.0416 40.8609C44.0416 41.7045 43.7065 42.5134 43.1101 43.1099C42.5136 43.7063 41.7046 44.0414 40.8611 44.0414C40.0176 44.0414 39.2087 43.7063 38.6122 43.1099C38.0157 42.5134 37.6807 41.7045 37.6807 40.8609C37.6807 40.0174 38.0157 39.2085 38.6122 38.612C39.2087 38.0156 40.0176 37.6805 40.8611 37.6805Z" fill="#7BB1F1"/>
</svg>
