<svg width="17" height="21" viewBox="0 0 17 21" fill="none" xmlns="http://www.w3.org/2000/svg">
<path d="M16.118 19.5C16.118 15.898 12.102 12.97 8.5 12.97C4.898 12.97 0.882 15.898 0.882 19.5M8.5 9.706C9.65449 9.706 10.7617 9.24738 11.578 8.43104C12.3944 7.61469 12.853 6.50749 12.853 5.353C12.853 4.19851 12.3944 3.09131 11.578 2.27496C10.7617 1.45862 9.65449 1 8.5 1C7.34551 1 6.23831 1.45862 5.42196 2.27496C4.60562 3.09131 4.147 4.19851 4.147 5.353C4.147 6.50749 4.60562 7.61469 5.42196 8.43104C6.23831 9.24738 7.34551 9.706 8.5 9.706Z" stroke="#F5EFDF" stroke-width="1.5" stroke-linecap="round" stroke-linejoin="round"/>
</svg>
