<svg width="70" height="56" viewBox="0 0 70 56" fill="none" xmlns="http://www.w3.org/2000/svg">
<path d="M35 55C30.0342 51.6414 24.2854 49.5012 18.2573 48.7808C13.9819 47.9462 9.62615 47.552 5.26378 47.6047C4.7056 47.6094 4.15198 47.5078 3.63488 47.3058C3.11778 47.1037 2.64745 46.8053 2.25103 46.4277C1.85462 46.0501 1.53997 45.6008 1.32524 45.1057C1.11052 44.6107 0.999979 44.0796 1 43.5433L1.07719 5.07298C1.07484 4.04076 1.48164 3.04641 2.21491 2.29202C2.94818 1.53762 3.9529 1.07979 5.02486 1.01158C9.46561 0.926764 13.9027 1.30809 18.2573 2.14877C24.2789 2.89521 30.0231 5.03019 35 8.37155M35 55V8.37155M35 55C39.9658 51.6414 45.7146 49.5012 51.7427 48.7808C56.0181 47.9462 60.3739 47.552 64.7362 47.6047C65.2944 47.6094 65.848 47.5078 66.3651 47.3058C66.8822 47.1037 67.3525 46.8053 67.749 46.4277C68.1454 46.0501 68.46 45.6008 68.6748 45.1057C68.8895 44.6107 69 44.0796 69 43.5433L68.9191 5.07298C68.9215 4.04133 68.5153 3.04747 67.7828 2.29316C67.0503 1.53886 66.0465 1.08065 64.9751 1.01158C60.5344 0.926764 56.0973 1.30809 51.7427 2.14877C45.7211 2.89521 39.9769 5.03019 35 8.37155" stroke="black" stroke-width="1.5" stroke-linecap="round" stroke-linejoin="round"/>
</svg>
