<svg width="20" height="21" viewBox="0 0 20 21" fill="none" xmlns="http://www.w3.org/2000/svg">
<path d="M13.8535 1H7.6865C6.32398 1.0008 5.01752 1.54254 4.05426 2.50618C3.091 3.46981 2.54977 4.77648 2.5495 6.139V14.361C2.5495 17.199 4.8495 19.5 7.6875 19.5H13.8545C16.6925 19.5 18.9935 17.2 18.9935 14.361V6.14C18.9935 3.302 16.6935 1.001 13.8545 1.001M1.0065 6.653H4.0895M1.0065 13.847H4.0895" stroke="#F5EFDF" stroke-width="1.5" stroke-linecap="round" stroke-linejoin="round"/>
<path d="M14.6695 14.995C14.6695 13.342 12.8265 11.999 11.1745 11.999C9.5225 11.999 7.6795 13.342 7.6795 14.994M11.1745 9.618C11.4828 9.618 11.7882 9.55726 12.073 9.43927C12.3579 9.32127 12.6168 9.14832 12.8348 8.93028C13.0528 8.71225 13.2258 8.45341 13.3438 8.16854C13.4618 7.88367 13.5225 7.57834 13.5225 7.27C13.5225 6.96165 13.4618 6.65633 13.3438 6.37146C13.2258 6.08658 13.0528 5.82774 12.8348 5.60971C12.6168 5.39168 12.3579 5.21873 12.073 5.10073C11.7882 4.98273 11.4828 4.922 11.1745 4.922C10.5518 4.922 9.95455 5.16937 9.51422 5.60971C9.07388 6.05005 8.8265 6.64727 8.8265 7.27C8.8265 7.89273 9.07388 8.48995 9.51422 8.93028C9.95455 9.37062 10.5518 9.618 11.1745 9.618Z" stroke="#F5EFDF" stroke-width="1.5" stroke-linecap="round" stroke-linejoin="round"/>
</svg>
