<svg width="38" height="24" viewBox="0 0 38 24" fill="none" xmlns="http://www.w3.org/2000/svg">
<path d="M0.875 14.2656C0.875 14.2656 5.88404 7.58691 14.4688 5.69636M37.125 14.2656C37.125 14.2656 32.116 7.58691 23.5312 5.69636M19 5.20312V0.671875M19 5.20312C17.3967 5.20312 15.8841 5.38467 14.4688 5.69636M19 5.20312C20.6033 5.20312 22.1159 5.38467 23.5312 5.69636M14.4688 5.69636L12.2031 2.9375M23.5312 5.69636L25.7969 2.9375" stroke="#F5EFDF" stroke-width="0.453125"/>
<path d="M37.125 14.2656C37.125 14.2656 32.116 20.9443 23.5312 22.8349C22.1159 23.1466 20.6033 23.3281 19 23.3281C17.3967 23.3281 15.8841 23.1466 14.4688 22.8349C5.88404 20.9443 0.875 14.2656 0.875 14.2656" stroke="#F5EFDF" stroke-width="0.453125"/>
<circle cx="19" cy="14.2656" r="8.83594" stroke="#F5EFDF" stroke-width="0.453125"/>
<path fill-rule="evenodd" clip-rule="evenodd" d="M19 18.7969C21.5025 18.7969 23.5312 16.7682 23.5312 14.2656C23.5312 13.8012 23.4614 13.3531 23.3316 12.9313C22.9764 13.7181 22.1849 14.2656 21.2656 14.2656C20.0144 14.2656 19 13.2513 19 12C19 11.0807 19.5476 10.2892 20.3343 9.93403C19.9125 9.80424 19.4644 9.73438 19 9.73438C16.4975 9.73438 14.4688 11.7631 14.4688 14.2656C14.4688 16.7682 16.4975 18.7969 19 18.7969Z" fill="#F5EFDF"/>
</svg>
