<svg width="70" height="70" viewBox="0 0 70 70" fill="none" xmlns="http://www.w3.org/2000/svg">
<rect width="70" height="70" rx="10" fill="#F5EFDF"/>
<path fill-rule="evenodd" clip-rule="evenodd" d="M22.9514 13.1386C22.9514 11.5534 24.2365 10.2683 25.8217 10.2683H34.366V22.3171V31.4955C34.366 33.0808 33.0809 34.3659 31.4957 34.3659H25.8217C24.2365 34.3659 22.9514 33.0808 22.9514 31.4955V22.3171V13.1386ZM35.6343 21.6829V10.2683H44.1786C45.7639 10.2683 47.049 11.5534 47.049 13.1386V18.8126C47.049 20.3978 45.7639 21.6829 44.1786 21.6829H35.6343ZM44.1786 22.9512H35.6343V31.4955C35.6343 32.6101 35.1937 33.6218 34.4772 34.3659H44.1786C46.4643 34.3659 48.3172 36.2188 48.3172 38.5045V56.8614C48.3172 59.1471 46.4643 61 44.1786 61H22.3173C21.967 61 21.6831 60.7161 21.6831 60.3659C21.6831 60.0156 21.967 59.7317 22.3173 59.7317H44.1786C45.7639 59.7317 47.049 58.4466 47.049 56.8614V38.5045C47.049 36.9193 45.7639 35.6342 44.1786 35.6342H28.6587V35.6341H25.8217C23.536 35.6341 21.6831 33.7812 21.6831 31.4955V22.3171V13.1386C21.6831 10.8529 23.536 9 25.8217 9H35.0002H44.1786C46.4643 9 48.3172 10.8529 48.3172 13.1386V18.8126C48.3172 21.0983 46.4643 22.9512 44.1786 22.9512Z" fill="#111013"/>
</svg>
