<svg width="76" height="81" viewBox="0 0 76 81" fill="none" xmlns="http://www.w3.org/2000/svg">
<path d="M38.5994 54.2331C40.4217 54.2331 42.2261 53.8742 43.9097 53.1768C45.5933 52.4795 47.123 51.4573 48.4115 50.1688C49.7001 48.8802 50.7222 47.3505 51.4196 45.6669C52.1169 43.9833 52.4759 42.1789 52.4759 40.3566C52.4759 38.5343 52.1169 36.7299 51.4196 35.0463C50.7222 33.3627 49.7001 31.833 48.4115 30.5444C47.123 29.2559 45.5933 28.2337 43.9097 27.5364C42.2261 26.839 40.4217 26.4801 38.5994 26.4801C34.9191 26.4801 31.3896 27.9421 28.7872 30.5444C26.1849 33.1468 24.7229 36.6763 24.7229 40.3566C24.7229 44.0369 26.1849 47.5664 28.7872 50.1688C31.3896 52.7711 34.9191 54.2331 38.5994 54.2331Z" stroke="black" stroke-width="1.5" stroke-linecap="round" stroke-linejoin="round"/>
<path d="M75.1097 52.9544C73.4755 57.6543 70.9518 61.9958 67.6765 65.7419L58.915 63.7536C55.5921 66.734 51.6442 68.9328 47.3609 70.1886L44.9931 78.7645C42.7737 79.1624 40.5241 79.3681 38.2694 79.3791C35.4484 79.3824 32.6363 79.0641 29.8874 78.4304L27.3753 69.5781C23.6313 68.1981 20.1897 66.1068 17.2401 63.4195L8.57763 65.647C5.14222 61.6324 2.56357 56.958 1 51.9107L7.39375 44.8075C6.81022 41.1749 6.90673 37.4654 7.67838 33.868L1.37125 27.2886C3.20469 22.1278 6.1106 17.414 9.89762 13.4575L18.8489 15.685C21.3137 13.7088 24.0595 12.1113 26.9958 10.9454L29.3635 2.18387C32.288 1.42653 35.2939 1.02896 38.3147 1C40.7279 1 43.141 1.22275 45.5129 1.66L47.7858 10.3761C51.2095 11.4857 54.4188 13.1811 57.2568 15.3962L66.2575 13.0739C69.8888 16.7337 72.7538 21.081 74.6849 25.8614L68.5799 32.4903C69.7377 37.0328 69.8336 41.7811 68.8604 46.3667L75.1097 52.9544Z" stroke="black" stroke-width="1.5" stroke-linecap="round" stroke-linejoin="round"/>
</svg>
