<svg width="68" height="68" viewBox="0 0 68 68" fill="none" xmlns="http://www.w3.org/2000/svg">
<path d="M34 0L37.1925 12.8192L44.0217 1.51052L43.2938 14.7012L53.1529 5.90788L48.5693 18.298L60.5823 12.8013L52.5503 23.29L65.6497 21.5784L54.883 29.2336L67.9049 31.4592L55.3601 35.6007L67.1476 41.5657L53.9393 41.8256L63.4449 51L50.7468 47.3552L57.1259 58.9238L46.0663 51.698L48.752 64.6329L40.3137 54.4684L39.0674 67.6202L34 55.42L28.9326 67.6202L27.6863 54.4684L19.248 64.6329L21.9337 51.698L10.8741 58.9238L17.2532 47.3552L4.55514 51L14.0607 41.8256L0.852451 41.5657L12.6399 35.6007L0.0950699 31.4592L13.117 29.2336L2.35029 21.5784L15.4497 23.29L7.41773 12.8013L19.4307 18.298L14.8471 5.90788L24.7062 14.7012L23.9783 1.51052L30.8075 12.8192L34 0Z" fill="#D9D9D9"/>
<path d="M34.3434 24.0404L35.3109 27.925L37.3803 24.4981L37.1597 28.4953L40.1473 25.8307L38.7584 29.5853L42.3987 27.9196L39.9647 31.098L43.9343 30.5793L40.6716 32.8991L44.6177 33.5735L40.8162 34.8285L44.3881 36.6361L40.3857 36.7148L43.2661 39.495L39.4182 38.3905L41.3513 41.8961L37.9999 39.7065L38.8138 43.6261L36.2567 40.546L35.879 44.5314L34.3434 40.8343L32.8078 44.5314L32.4302 40.546L29.8731 43.6261L30.687 39.7065L27.3356 41.8961L29.2686 38.3905L25.4207 39.495L28.3012 36.7148L24.2987 36.6361L27.8707 34.8285L24.0692 33.5735L28.0153 32.8991L24.7526 30.5793L28.7221 31.098L26.2882 27.9196L29.9285 29.5853L28.5395 25.8307L31.5271 28.4953L31.3066 24.4981L33.376 27.925L34.3434 24.0404Z" fill="#ADADAD"/>
</svg>
