<svg width="21" height="17" viewBox="0 0 21 17" fill="none" xmlns="http://www.w3.org/2000/svg">
<path d="M13.9708 11.1831L14.4385 10.7913L13.3524 9.87104L12.8868 10.2628L13.9708 11.1831ZM16.0065 10.627L17.9663 11.5256L18.6996 10.3856L16.7408 9.48789L16.0065 10.627ZM18.3427 13.3107L16.8864 14.5328L17.9704 15.4522L19.4267 14.2309L18.3427 13.3107ZM15.9983 14.9254C14.5113 15.0431 10.6655 14.9384 6.49973 11.446L5.4147 12.3654C9.95991 16.1769 14.2867 16.3637 16.1419 16.2176L15.9983 14.9254ZM6.49973 11.446C2.52984 8.11618 1.87144 5.31654 1.7894 4.10138L0.253132 4.17489C0.355687 5.70401 1.171 8.80723 5.4147 12.3654L6.49973 11.446ZM7.90985 6.10099L8.20418 5.85364L7.12121 4.93426L6.82687 5.18075L7.90985 6.10099ZM8.43801 2.70977L7.14582 1.2533L5.91414 2.0317L7.20633 3.4873L8.43801 2.70977ZM2.79648 0.935887L1.18638 2.28511L2.2714 3.20535L3.88048 1.85613L2.79648 0.935887ZM7.36836 5.64087C6.82482 5.18075 6.82482 5.18075 6.82482 5.18248H6.82277L6.8197 5.18594C6.77096 5.22738 6.72732 5.27288 6.68945 5.32173C6.63407 5.39092 6.57357 5.48174 6.52229 5.59677C6.39745 5.8937 6.36635 6.21292 6.43204 6.52306C6.56946 7.27119 7.18069 8.25975 8.74567 9.57265L9.8307 8.65241C8.36519 7.42427 8.01651 6.67701 7.9519 6.32414C7.92113 6.15635 7.95292 6.07332 7.96215 6.05429C7.96831 6.04276 7.96831 6.04103 7.96215 6.0491C7.95301 6.06104 7.94272 6.07232 7.93139 6.08283L7.92113 6.09148L7.91088 6.09926L7.36836 5.64087ZM8.74567 9.57265C10.3117 10.8856 11.49 11.3976 12.3781 11.5117C12.8325 11.5705 13.1986 11.5238 13.4765 11.4365C13.6322 11.3885 13.7776 11.3195 13.9072 11.2324L13.9585 11.1935L13.9657 11.1883L13.9688 11.1857L13.9698 11.1839C13.9698 11.1839 13.9708 11.1831 13.4283 10.723C12.8848 10.2628 12.8878 10.262 12.8878 10.262L12.8899 10.2602L12.8919 10.2585L12.8981 10.2542L12.9084 10.2455L12.9473 10.2196C12.9569 10.2144 12.9545 10.215 12.9401 10.2213C12.9145 10.2291 12.814 10.2559 12.612 10.23C12.1874 10.1746 11.2952 9.88055 9.8307 8.65241L8.74567 9.57265ZM7.14582 1.25244C6.09976 0.0761889 4.04457 -0.110627 2.79648 0.935887L3.88048 1.85613C4.42607 1.3986 5.39419 1.44617 5.91414 2.0317L7.14582 1.25244ZM1.79042 4.10224C1.76991 3.80299 1.93297 3.4899 2.2714 3.20622L1.18535 2.28598C0.634635 2.74783 0.20083 3.40168 0.253132 4.17489L1.79042 4.10224ZM16.8864 14.5328C16.6054 14.7698 16.3019 14.903 15.9993 14.9263L16.1419 16.2176C16.8957 16.1579 17.512 15.8379 17.9715 15.453L16.8864 14.5328ZM8.20418 5.85364C9.21434 5.00691 9.28921 3.66893 8.43903 2.71064L7.20735 3.48817C7.62065 3.95434 7.55911 4.56582 7.12018 4.93513L8.20418 5.85364ZM17.9674 11.5264C18.8052 11.9104 18.9355 12.8151 18.3437 13.3116L19.4288 14.2309C20.803 13.078 20.3794 11.1554 18.7006 10.3865L17.9674 11.5264ZM14.4385 10.7921C14.8323 10.4618 15.4661 10.3805 16.0076 10.6278L16.7418 9.48876C15.6302 8.97848 14.2518 9.11945 13.3534 9.8719L14.4385 10.7921Z" fill="#E0C4A3"/>
</svg>
