<svg width="21" height="21" viewBox="0 0 21 21" fill="none" xmlns="http://www.w3.org/2000/svg">
<path d="M17.694 7.32897V6.07097C17.694 5.53297 17.478 5.01697 17.092 4.63697C16.7044 4.25589 16.1825 4.04253 15.639 4.04297H5.36C4.81647 4.04253 4.29456 4.25589 3.907 4.63697C3.521 5.01697 3.305 5.53297 3.305 6.07097V7.32997" stroke="#F5EFDF" stroke-width="1.5" stroke-linecap="round" stroke-linejoin="round"/>
<path d="M5.361 4.043V3.029C5.361 2.491 5.578 1.975 5.963 1.594C6.35081 1.21268 6.87312 0.999298 7.417 1H13.583C14.1269 0.999298 14.6492 1.21268 15.037 1.594C15.422 1.974 15.639 2.491 15.639 3.029V4.043M16.42 7.086H4.58C2.74 7.086 1.25 8.556 1.25 10.372V16.214C1.25 18.029 2.74 19.5 4.58 19.5H16.42C18.26 19.5 19.75 18.029 19.75 16.214V10.372C19.75 8.557 18.26 7.086 16.42 7.086Z" stroke="#F5EFDF" stroke-width="1.5" stroke-linecap="round" stroke-linejoin="round"/>
<path d="M6.389 11.1429V12.1569C6.389 12.6949 6.605 13.2109 6.991 13.5909C7.376 13.9709 7.899 14.1849 8.444 14.1849H12.556C13.0995 14.1854 13.6214 13.972 14.009 13.5909C14.395 13.2109 14.611 12.6949 14.611 12.1569V11.1429" stroke="#F5EFDF" stroke-width="1.5" stroke-linecap="round" stroke-linejoin="round"/>
</svg>
