<svg width="32" height="32" viewBox="0 0 32 32" fill="none" xmlns="http://www.w3.org/2000/svg">
<path d="M20.17 19L17.58 21.59L19 23L23 19L19 15L17.58 16.41L20.17 19ZM11.83 19L14.42 16.41L13 15L9 19L13 23L14.42 21.59L11.83 19Z" fill="#F5EFDF"/>
<path d="M9 9C9.55228 9 10 8.55228 10 8C10 7.44772 9.55228 7 9 7C8.44772 7 8 7.44772 8 8C8 8.55228 8.44772 9 9 9Z" fill="#F5EFDF"/>
<path d="M6 9C6.55228 9 7 8.55228 7 8C7 7.44772 6.55228 7 6 7C5.44772 7 5 7.44772 5 8C5 8.55228 5.44772 9 6 9Z" fill="#F5EFDF"/>
<path d="M28 4H4C2.897 4 2 4.898 2 6V26C2 27.103 2.897 28 4 28H28C29.103 28 30 27.103 30 26V6C30 4.898 29.103 4 28 4ZM28 6V10H4V6H28ZM4 26V12H28V26H4Z" fill="#F5EFDF"/>
</svg>
