<svg width="27" height="53" viewBox="0 0 27 53" fill="none" xmlns="http://www.w3.org/2000/svg">
<path fill-rule="evenodd" clip-rule="evenodd" d="M1.26829 4.63864C1.26829 3.05339 2.55339 1.76829 4.13864 1.76829H12.6829V13.8171V22.9955C12.6829 24.5808 11.3978 25.8659 9.81258 25.8659H4.13864C2.55339 25.8659 1.26829 24.5808 1.26829 22.9955V13.8171V4.63864ZM13.9512 13.1829V1.76829H22.4955C24.0808 1.76829 25.3659 3.05339 25.3659 4.63864V10.3126C25.3659 11.8978 24.0808 13.1829 22.4955 13.1829H13.9512ZM22.4955 14.4512H13.9512V22.9955C13.9512 24.1101 13.5106 25.1218 12.7941 25.8659H22.4955C24.7812 25.8659 26.6341 27.7188 26.6341 30.0045V48.3614C26.6341 50.6471 24.7812 52.5 22.4955 52.5H0.634146C0.283917 52.5 0 52.2161 0 51.8659C0 51.5156 0.283917 51.2317 0.634146 51.2317H22.4955C24.0808 51.2317 25.3659 49.9466 25.3659 48.3614V30.0045C25.3659 28.4193 24.0808 27.1342 22.4955 27.1342H6.97561V27.1341H4.13864C1.85293 27.1341 0 25.2812 0 22.9955V13.8171V4.63864C0 2.35293 1.85293 0.5 4.13864 0.5H13.3171H22.4955C24.7812 0.5 26.6341 2.35293 26.6341 4.63864V10.3126C26.6341 12.5983 24.7812 14.4512 22.4955 14.4512Z" fill="#111013"/>
</svg>
