<svg width="24" height="24" viewBox="0 0 24 24" fill="none" xmlns="http://www.w3.org/2000/svg">
<path d="M9.408 12.4799C9.408 12.5879 9.408 12.5879 9.324 12.5879H7.2C7.596 11.3879 8.016 10.1159 8.4 8.86787C8.4 8.96387 8.4 9.05987 8.484 9.15587C8.568 9.25187 8.592 9.55187 8.64 9.74387L8.856 10.4159C8.856 10.6439 8.988 10.8599 9.06 11.0879L9.288 11.7719L9.408 12.4799Z" fill="black"/>
<path d="M18.096 11.724C18.0294 11.5209 17.9097 11.3393 17.7494 11.198C17.589 11.0566 17.3938 10.9606 17.184 10.92C16.9655 10.8842 16.7425 10.8842 16.524 10.92C16.3623 10.9515 16.2096 11.0184 16.0768 11.1159C15.944 11.2134 15.8344 11.3391 15.756 11.484C15.6345 11.6995 15.5531 11.9354 15.516 12.18H18C18.12 12.18 18.156 12.18 18.144 12.012C18.1398 11.9144 18.1237 11.8177 18.096 11.724ZM18.096 11.724C18.0294 11.5209 17.9097 11.3393 17.7494 11.198C17.589 11.0566 17.3938 10.9606 17.184 10.92C16.9655 10.8842 16.7425 10.8842 16.524 10.92C16.3623 10.9515 16.2096 11.0184 16.0768 11.1159C15.944 11.2134 15.8344 11.3391 15.756 11.484C15.6345 11.6995 15.5531 11.9354 15.516 12.18H18C18.12 12.18 18.156 12.18 18.144 12.012C18.1398 11.9144 18.1237 11.8177 18.096 11.724ZM18.096 11.724C18.0294 11.5209 17.9097 11.3393 17.7494 11.198C17.589 11.0566 17.3938 10.9606 17.184 10.92C16.9655 10.8842 16.7425 10.8842 16.524 10.92C16.3623 10.9515 16.2096 11.0184 16.0768 11.1159C15.944 11.2134 15.8344 11.3391 15.756 11.484C15.6345 11.6995 15.5531 11.9354 15.516 12.18H18C18.12 12.18 18.156 12.18 18.144 12.012C18.1398 11.9144 18.1237 11.8177 18.096 11.724ZM18.096 11.724C18.0294 11.5209 17.9097 11.3393 17.7494 11.198C17.589 11.0566 17.3938 10.9606 17.184 10.92C16.9655 10.8842 16.7425 10.8842 16.524 10.92C16.3623 10.9515 16.2096 11.0184 16.0768 11.1159C15.944 11.2134 15.8344 11.3391 15.756 11.484C15.6345 11.6995 15.5531 11.9354 15.516 12.18H18C18.12 12.18 18.156 12.18 18.144 12.012C18.1398 11.9144 18.1237 11.8177 18.096 11.724ZM18 0H6C4.4087 0 2.88258 0.632141 1.75736 1.75736C0.632141 2.88258 0 4.4087 0 6V18C0 19.5913 0.632141 21.1174 1.75736 22.2426C2.88258 23.3679 4.4087 24 6 24H18C19.5913 24 21.1174 23.3679 22.2426 22.2426C23.3679 21.1174 24 19.5913 24 18V6C24 4.4087 23.3679 2.88258 22.2426 1.75736C21.1174 0.632141 19.5913 0 18 0ZM12.876 16.8H10.932C10.8987 16.8051 10.8646 16.8 10.8342 16.7854C10.8039 16.7709 10.7785 16.7475 10.7616 16.7184C10.7503 16.6992 10.743 16.678 10.74 16.656C10.644 16.356 10.536 16.068 10.44 15.768C10.344 15.468 10.2 15.084 10.092 14.736C10.092 14.544 9.936 14.52 9.768 14.52H6.744C6.612 14.52 6.612 14.52 6.564 14.664C6.516 14.808 6.444 15.06 6.372 15.264L6.18 15.888L5.928 16.62C5.93447 16.6517 5.93447 16.6843 5.928 16.716C5.928 16.872 5.736 16.848 5.616 16.848H4.068C3.888 16.848 3.828 16.764 3.9 16.596C3.972 16.428 4.032 16.236 4.092 16.068L4.344 15.3L4.812 13.98C4.944 13.62 5.064 13.248 5.184 12.876C5.304 12.504 5.412 12.24 5.532 11.916L5.784 11.16L6.228 9.96L6.588 8.904C6.708 8.568 6.828 8.232 6.936 7.884C6.95285 7.72043 6.95285 7.55557 6.936 7.392C6.936 7.14 6.936 7.14 7.188 7.14H9.36C9.552 7.14 9.54 7.14 9.6 7.32C9.66 7.5 9.816 7.908 9.912 8.196C10.008 8.484 10.092 8.7 10.176 8.94L10.464 9.72L10.752 10.56C10.872 10.884 10.992 11.196 11.1 11.52L11.412 12.384C11.508 12.672 11.616 12.96 11.724 13.26C11.832 13.56 11.868 13.704 11.952 13.92C12.036 14.136 12.12 14.4 12.216 14.64C12.312 14.88 12.372 15.096 12.456 15.324L12.804 16.296L12.948 16.716C12.996 16.704 12.96 16.8 12.876 16.8ZM20.076 13.2C20.0816 13.308 20.0816 13.416 20.076 13.524C20.076 13.632 19.896 13.668 19.788 13.668H15.552C15.5952 14.0616 15.768 14.4288 16.044 14.712C16.544 15.0191 17.1116 15.1994 17.6972 15.237C18.2828 15.2747 18.8688 15.1686 19.404 14.928C19.5 14.928 19.548 14.928 19.548 15.024V16.38C19.548 16.596 19.464 16.62 19.284 16.692L18.852 16.824C18.7148 16.8645 18.5742 16.8926 18.432 16.908C18.132 16.908 17.832 16.992 17.532 17.004C17.232 17.016 17.124 17.004 16.92 17.004H16.8C16.56 17.004 16.308 17.004 16.08 16.92C15.4181 16.7878 14.8139 16.4522 14.352 15.96C14.059 15.657 13.8304 15.2978 13.68 14.904C13.5586 14.6166 13.4778 14.3137 13.44 14.004C13.4228 13.6522 13.4228 13.2998 13.44 12.948C13.458 12.5148 13.5396 12.0864 13.68 11.676C13.798 11.3344 13.9636 11.0113 14.172 10.716C14.4454 10.304 14.8164 9.96599 15.252 9.732C15.44 9.6232 15.636 9.5312 15.84 9.456C16.0615 9.40328 16.2859 9.36322 16.512 9.336C16.716 9.324 16.92 9.324 17.124 9.336C17.4248 9.3408 17.7208 9.3808 18.012 9.456C18.276 9.5304 18.528 9.6344 18.768 9.768C19.1376 9.97994 19.4441 10.2864 19.656 10.656C19.776 10.872 19.872 11.088 19.968 11.304C20.0192 11.4568 20.0592 11.6128 20.088 11.772C20.1953 12.2408 20.2075 12.7264 20.124 13.2H20.076ZM17.136 10.98C16.9175 10.9442 16.6945 10.9442 16.476 10.98C16.3143 11.0115 16.1616 11.0784 16.0288 11.1759C15.896 11.2734 15.7864 11.3991 15.708 11.544C15.5865 11.7595 15.5051 11.9954 15.468 12.24H18C18.12 12.24 18.156 12.24 18.144 12.072C18.134 11.9653 18.1098 11.8603 18.072 11.76C18.0128 11.5533 17.8992 11.3662 17.743 11.2185C17.5868 11.0707 17.3937 10.9676 17.184 10.92L17.136 10.98ZM18.048 11.784C17.9814 11.5809 17.8617 11.3993 17.7014 11.258C17.541 11.1166 17.3458 11.0206 17.136 10.98C16.9175 10.9442 16.6945 10.9442 16.476 10.98C16.3143 11.0115 16.1616 11.0784 16.0288 11.1759C15.896 11.2734 15.7864 11.3991 15.708 11.544C15.5865 11.7595 15.5051 11.9954 15.468 12.24H18C18.12 12.24 18.156 12.24 18.144 12.072C18.144 11.9536 18.128 11.8376 18.096 11.724L18.048 11.784ZM18.048 11.784C17.9814 11.5809 17.8617 11.3993 17.7014 11.258C17.541 11.1166 17.3458 11.0206 17.136 10.98C16.9175 10.9442 16.6945 10.9442 16.476 10.98C16.3143 11.0115 16.1616 11.0784 16.0288 11.1759C15.896 11.2734 15.7864 11.3991 15.708 11.544C15.5865 11.7595 15.5051 11.9954 15.468 12.24H18C18.12 12.24 18.156 12.24 18.144 12.072C18.144 11.9536 18.128 11.8376 18.096 11.724L18.048 11.784ZM18.048 11.784C17.9814 11.5809 17.8617 11.3993 17.7014 11.258C17.541 11.1166 17.3458 11.0206 17.136 10.98C16.9175 10.9442 16.6945 10.9442 16.476 10.98C16.3143 11.0115 16.1616 11.0784 16.0288 11.1759C15.896 11.2734 15.7864 11.3991 15.708 11.544C15.5865 11.7595 15.5051 11.9954 15.468 12.24H18C18.12 12.24 18.156 12.24 18.144 12.072C18.144 11.9536 18.128 11.8376 18.096 11.724L18.048 11.784ZM18.048 11.784C17.9814 11.5809 17.8617 11.3993 17.7014 11.258C17.541 11.1166 17.3458 11.0206 17.136 10.98C16.9175 10.9442 16.6945 10.9442 16.476 10.98C16.3143 11.0115 16.1616 11.0784 16.0288 11.1759C15.896 11.2734 15.7864 11.3991 15.708 11.544C15.5865 11.7595 15.5051 11.9954 15.468 12.24H18C18.12 12.24 18.156 12.24 18.144 12.072C18.144 11.9536 18.128 11.8376 18.096 11.724L18.048 11.784Z" fill="black"/>
</svg>
