<svg width="17" height="24" viewBox="0 0 17 24" fill="none" xmlns="http://www.w3.org/2000/svg">
<path fill-rule="evenodd" clip-rule="evenodd" d="M4.56124 0.00111761C3.59338 0.000400263 2.65043 0.307796 1.86894 0.878783C1.08746 1.44977 0.508027 2.2547 0.214565 3.17699C-0.0788965 4.09928 -0.0711495 5.09105 0.236685 6.00864C0.544519 6.92624 1.13646 7.72202 1.92677 8.28073C1.33187 8.70176 0.846699 9.25941 0.512013 9.90683C0.177327 10.5543 0.00289759 11.2725 0.00337836 12.0014C0.00337836 13.5374 0.76358 14.897 1.929 15.722C1.29056 16.1739 0.779164 16.7826 0.444027 17.4893C0.108891 18.1961 -0.0387115 18.9772 0.0154226 19.7576C0.0695566 20.5379 0.323605 21.2912 0.753124 21.9449C1.18264 22.5986 1.77318 23.1308 2.46791 23.4903C3.16264 23.8497 3.93818 24.0243 4.71992 23.9973C5.50167 23.9702 6.26329 23.7425 6.93152 23.3359C7.59976 22.9293 8.1521 22.3576 8.53542 21.6757C8.91874 20.9939 9.12013 20.2248 9.12021 19.4426V15.5311C9.59439 15.9153 10.1409 16.2003 10.7273 16.3693C11.3137 16.5382 11.928 16.5877 12.5339 16.5148C13.1398 16.4419 13.7249 16.2481 14.2545 15.9448C14.784 15.6415 15.2473 15.235 15.6168 14.7493C15.9863 14.2636 16.2545 13.7087 16.4055 13.1174C16.5565 12.5261 16.5872 11.9105 16.4958 11.3071C16.4044 10.7037 16.1928 10.1249 15.8735 9.6048C15.5542 9.08474 15.1337 8.6341 14.637 8.27961C15.4273 7.7209 16.0192 6.92512 16.3271 6.00753C16.6349 5.08993 16.6426 4.09817 16.3492 3.17587C16.0557 2.25358 15.4763 1.44865 14.6948 0.877666C13.9133 0.30668 12.9704 -0.000716091 12.0025 1.25265e-06L4.56124 0.00111761ZM7.44464 14.8848H4.56124C4.18258 14.8848 3.80764 14.8102 3.45781 14.6653C3.10797 14.5204 2.79011 14.308 2.52236 14.0402C2.25461 13.7725 2.04222 13.4546 1.89732 13.1048C1.75241 12.755 1.67783 12.38 1.67783 12.0014C1.67783 11.6227 1.75241 11.2478 1.89732 10.8979C2.04222 10.5481 2.25461 10.2302 2.52236 9.96248C2.79011 9.69473 3.10797 9.48234 3.45781 9.33744C3.80764 9.19253 4.18258 9.11795 4.56124 9.11795H7.44464V14.8848ZM4.56124 7.4435H7.44464V1.67557H4.56124C3.79636 1.67557 3.06281 1.97942 2.52197 2.52026C1.98112 3.06111 1.67727 3.79466 1.67727 4.55953C1.67727 5.32441 1.98112 6.05796 2.52197 6.59881C3.06281 7.13965 3.79636 7.4435 4.56124 7.4435ZM14.887 4.55898C14.8873 5.32332 14.5841 6.0565 14.0441 6.59739C13.504 7.13828 12.7713 7.44261 12.007 7.4435H9.1191V1.67557H12.0036C12.3823 1.67557 12.7572 1.75015 13.1071 1.89506C13.4569 2.03996 13.7747 2.25235 14.0425 2.5201C14.3102 2.78785 14.5226 3.10571 14.6675 3.45554C14.8124 3.80538 14.887 4.18032 14.887 4.55898ZM9.1191 11.998C9.11998 11.2344 9.4237 10.5024 9.96362 9.96248C10.5035 9.42256 11.2356 9.11884 11.9992 9.11795H12.0059C12.5759 9.11861 13.1329 9.2882 13.6065 9.60529C14.0802 9.92238 14.4492 10.3727 14.6671 10.8995C14.8849 11.4262 14.9417 12.0057 14.8303 12.5647C14.719 13.1237 14.4444 13.6372 14.0414 14.0402C13.6383 14.4433 13.1249 14.7178 12.5658 14.8292C12.0068 14.9406 11.4274 14.8837 10.9006 14.6659C10.3739 14.4481 9.92352 14.079 9.60643 13.6054C9.28935 13.1317 9.11976 12.5747 9.1191 12.0047V11.998ZM4.56124 16.5592C3.991 16.5592 3.43357 16.7283 2.95942 17.0451C2.48527 17.3619 2.11569 17.8121 1.89742 18.3389C1.67915 18.8657 1.62199 19.4454 1.73315 20.0047C1.84432 20.564 2.11883 21.0778 2.52197 21.4811C2.92511 21.8844 3.43878 22.1591 3.99803 22.2705C4.55728 22.3819 5.137 22.3249 5.6639 22.1069C6.19079 21.8888 6.64119 21.5194 6.95816 21.0454C7.27513 20.5713 7.44442 20.014 7.44464 19.4437V16.5592H4.56124Z" fill="black"/>
</svg>
