<svg width="24" height="24" viewBox="0 0 24 24" fill="none" xmlns="http://www.w3.org/2000/svg">
<path d="M10.0921 8.97598C10.5121 10.344 10.9441 11.712 11.3761 13.104H8.83213C9.26413 11.712 9.67213 10.344 10.0921 8.97598Z" fill="black"/>
<path d="M18 0H6C4.4087 0 2.88258 0.632141 1.75736 1.75736C0.632141 2.88258 0 4.4087 0 6V18C0 19.5913 0.632141 21.1174 1.75736 22.2426C2.88258 23.3679 4.4087 24 6 24H18C19.5913 24 21.1174 23.3679 22.2426 22.2426C23.3679 21.1174 24 19.5913 24 18V6C24 4.4087 23.3679 2.88258 22.2426 1.75736C21.1174 0.632141 19.5913 0 18 0ZM14.988 17.736H13.116C13.0413 17.7464 12.9656 17.727 12.905 17.6822C12.8444 17.6373 12.8038 17.5704 12.792 17.496C12.564 16.824 12.324 16.152 12.096 15.468C12.0888 15.4251 12.0731 15.3841 12.0497 15.3474C12.0263 15.3108 11.9958 15.2792 11.96 15.2545C11.9242 15.2299 11.8838 15.2127 11.8411 15.204C11.7985 15.1954 11.7546 15.1954 11.712 15.204H8.52C8.47567 15.1935 8.42963 15.1925 8.38489 15.2011C8.34015 15.2096 8.29771 15.2275 8.26034 15.2535C8.22298 15.2796 8.19152 15.3132 8.16803 15.3522C8.14453 15.3913 8.12953 15.4348 8.124 15.48C7.92 16.152 7.692 16.8 7.488 17.472C7.48229 17.5144 7.46793 17.5552 7.4458 17.5918C7.42367 17.6284 7.39424 17.6601 7.35936 17.6848C7.32447 17.7096 7.28486 17.7269 7.243 17.7357C7.20113 17.7445 7.15791 17.7446 7.116 17.736H5.472C5.184 17.736 5.16 17.736 5.256 17.436L7.848 9.96C8.088 9.276 8.328 8.592 8.544 7.908C8.60334 7.70514 8.63562 7.49532 8.64 7.284C8.64 7.032 8.736 6.972 8.964 6.984H11.256C11.424 6.984 11.508 6.984 11.568 7.212L14.52 15.528C14.748 16.176 14.976 16.812 15.192 17.448C15.288 17.712 15.276 17.736 14.988 17.736ZM18.66 17.532C18.66 17.736 18.576 17.796 18.384 17.796H16.656C16.416 17.796 16.356 17.7 16.356 17.484V9.948C16.356 9.708 16.428 9.612 16.68 9.624H18.372C18.564 9.624 18.66 9.624 18.66 9.888C18.652 12.432 18.652 14.98 18.66 17.532ZM17.46 8.772C17.2881 8.78292 17.1158 8.75668 16.9549 8.69508C16.794 8.63347 16.6482 8.53794 16.5275 8.41497C16.4069 8.29201 16.3141 8.1445 16.2555 7.98248C16.1969 7.82045 16.1739 7.64771 16.188 7.476C16.1895 7.30532 16.2251 7.13666 16.2925 6.97988C16.36 6.8231 16.4581 6.68135 16.581 6.56291C16.7039 6.44448 16.8492 6.35173 17.0084 6.29011C17.1675 6.22848 17.3374 6.19921 17.508 6.204C17.674 6.20347 17.8383 6.23738 17.9905 6.3036C18.1428 6.36982 18.2796 6.4669 18.3924 6.5887C18.5051 6.71051 18.5914 6.85439 18.6458 7.01125C18.7001 7.16811 18.7213 7.33453 18.708 7.5C18.7178 7.66354 18.6941 7.82736 18.6382 7.98136C18.5823 8.13537 18.4955 8.2763 18.383 8.39547C18.2706 8.51464 18.135 8.60952 17.9845 8.67428C17.834 8.73904 17.6718 8.7723 17.508 8.772H17.46Z" fill="black"/>
<path d="M11.3761 13.104H8.83213C9.26413 11.712 9.67213 10.344 10.0321 8.97598C10.5121 10.344 10.9441 11.712 11.3761 13.104Z" fill="black"/>
</svg>
