<svg width="24" height="24" viewBox="0 0 24 24" fill="none" xmlns="http://www.w3.org/2000/svg">
<g clip-path="url(#clip0_198_141)">
<path d="M0 0H24V24H0V0ZM22.035 18.2775C21.8595 17.1795 21.144 16.2615 19.0312 15.4028C18.297 15.0593 17.4765 14.817 17.2343 14.262C17.1443 13.9335 17.1285 13.7542 17.187 13.5585C17.3393 12.9097 18.1013 12.7185 18.7028 12.8985C19.0935 13.0192 19.4528 13.3162 19.6793 13.797C20.7143 13.1212 20.7142 13.1212 21.4335 12.672C21.1642 12.2542 21.0315 12.0705 20.8478 11.895C20.2185 11.1877 19.3792 10.8285 18.0157 10.86L17.3085 10.95C16.6327 11.1143 15.9885 11.4735 15.5978 11.9543C14.4608 13.2435 14.7892 15.4935 16.1677 16.4272C17.5312 17.4465 19.527 17.6692 19.785 18.6307C20.0235 19.803 18.9142 20.178 17.8162 20.0408C17.0077 19.8608 16.5585 19.455 16.062 18.705L14.2335 19.7557C14.4405 20.2365 14.6827 20.4435 15.042 20.865C16.7805 22.6192 21.132 22.5293 21.9127 19.8608C21.9397 19.7708 22.1512 19.1535 21.987 18.2123L22.035 18.2775ZM13.0507 11.031H10.8045C10.8045 12.9683 10.7925 14.8942 10.7925 16.836C10.7925 18.0667 10.8548 19.1992 10.656 19.5472C10.3238 20.235 9.47625 20.1488 9.08925 20.028C8.69475 19.833 8.4915 19.563 8.26125 19.1722C8.1945 19.0665 8.148 18.9772 8.13225 18.9772L6.30825 20.1022C6.61275 20.7315 7.05825 21.2745 7.63275 21.618C8.4885 22.1295 9.63675 22.2937 10.8398 22.0245C11.6213 21.798 12.297 21.333 12.648 20.6145C13.1595 19.6845 13.05 18.5445 13.0463 17.2665C13.0583 15.2115 13.0463 13.1572 13.0463 11.0865L13.0507 11.031Z" fill="black"/>
</g>
<defs>
<clipPath id="clip0_198_141">
<rect width="24" height="24" fill="white"/>
</clipPath>
</defs>
</svg>
