<svg width="24" height="24" viewBox="0 0 24 24" fill="none" xmlns="http://www.w3.org/2000/svg">
<path d="M10.1399 10.176C10.1581 10.5403 10.048 10.8995 9.82874 11.1911C9.6095 11.4827 9.295 11.6882 8.93993 11.772C8.31351 11.957 7.6602 12.0341 7.00793 12C6.83993 12 6.82793 11.892 6.82793 11.772V8.71198C6.82793 8.62798 6.91193 8.48398 6.95993 8.48398C7.64637 8.40712 8.34099 8.4518 9.01193 8.61598C9.34959 8.70852 9.6455 8.91364 9.85064 9.19735C10.0558 9.48106 10.1579 9.82633 10.1399 10.176Z" fill="black"/>
<path d="M18 0H6C4.4087 0 2.88258 0.632141 1.75736 1.75736C0.632141 2.88258 0 4.4087 0 6V18C0 19.5913 0.632141 21.1174 1.75736 22.2426C2.88258 23.3679 4.4087 24 6 24H18C19.5913 24 21.1174 23.3679 22.2426 22.2426C23.3679 21.1174 24 19.5913 24 18V6C24 4.4087 23.3679 2.88258 22.2426 1.75736C21.1174 0.632141 19.5913 0 18 0ZM10.8 13.2C10.1944 13.5846 9.50032 13.8077 8.784 13.848H7.176C6.84 13.848 6.84 13.848 6.84 14.172V16.956C6.84 17.196 6.768 17.268 6.528 17.268H4.944C4.716 17.268 4.656 17.184 4.656 16.968V6.852C4.656 6.612 4.656 6.54 4.956 6.54H8.712C9.39758 6.55858 10.0669 6.75277 10.656 7.104C11.1647 7.39066 11.5883 7.80718 11.8834 8.31104C12.1786 8.8149 12.3348 9.38806 12.336 9.972C12.4054 10.5997 12.2984 11.2342 12.0271 11.8045C11.7558 12.3747 11.3308 12.858 10.8 13.2ZM17.904 17.16C16.8604 17.5666 15.7178 17.6461 14.628 17.388C14.3008 17.316 13.9808 17.22 13.668 17.1C13.6198 17.0774 13.5774 17.044 13.5441 17.0023C13.5108 16.9607 13.4875 16.912 13.476 16.86V15.048C13.86 15.192 14.22 15.36 14.592 15.48C15.2154 15.6793 15.8755 15.7367 16.524 15.648C16.6536 15.624 16.7776 15.584 16.896 15.528C16.9663 15.4972 17.0275 15.4487 17.0734 15.3872C17.1194 15.3257 17.1487 15.2534 17.1584 15.1772C17.168 15.1011 17.1578 15.0237 17.1286 14.9527C17.0995 14.8816 17.0524 14.8194 16.992 14.772C16.7175 14.582 16.4239 14.4211 16.116 14.292C15.624 14.052 15.12 13.86 14.652 13.584C14.2294 13.3784 13.8845 13.0421 13.6683 12.6248C13.4521 12.2076 13.3762 11.7318 13.452 11.268C13.513 10.8217 13.6985 10.4015 13.9871 10.0556C14.2757 9.7097 14.6558 9.452 15.084 9.312C15.8558 9.05103 16.6793 8.98103 17.484 9.108C17.868 9.108 18.24 9.252 18.624 9.324C18.828 9.324 18.9 9.492 18.888 9.696V11.1C18.888 11.364 18.828 11.388 18.588 11.292C17.8385 10.945 17.01 10.8042 16.188 10.884C16.0715 10.8975 15.958 10.93 15.852 10.98C15.78 11.0083 15.7167 11.0548 15.6682 11.1151C15.6198 11.1754 15.5879 11.2473 15.5758 11.3237C15.5636 11.4001 15.5717 11.4783 15.5991 11.5506C15.6265 11.6229 15.6723 11.6868 15.732 11.736C16.0792 11.9672 16.4432 12.1672 16.824 12.336C17.28 12.564 17.76 12.744 18.204 12.996C18.6069 13.1793 18.9406 13.4866 19.1565 13.8731C19.3724 14.2595 19.4591 14.7048 19.404 15.144C19.3661 15.5821 19.2035 16.0002 18.9356 16.349C18.6677 16.6977 18.3056 16.9625 17.892 17.112L17.904 17.16Z" fill="black"/>
</svg>
