<svg width="27" height="24" viewBox="0 0 27 24" fill="none" xmlns="http://www.w3.org/2000/svg">
<path d="M13.4137 9.64168C14.6989 9.64168 15.7471 10.6898 15.7471 12C15.7471 13.2478 14.6989 14.3084 13.4137 14.3084C12.1285 14.3084 11.0803 13.2478 11.0803 12C11.0803 10.6898 12.1285 9.64168 13.4137 9.64168ZM7.63645 21.9823C8.42256 22.4564 10.1445 21.7327 12.1285 19.8611C11.4796 19.1249 10.8433 18.3263 10.2443 17.4903C9.23889 17.3933 8.23926 17.2434 7.24964 17.0411C6.61327 19.7113 6.85035 21.5456 7.63645 21.9823ZM8.52238 14.82L8.16052 14.1836C8.02326 14.5455 7.88601 14.9073 7.79866 15.2567C8.13557 15.3316 8.5099 15.394 8.89671 15.4564L8.52238 14.82ZM16.6829 13.8717L17.6936 12L16.6829 10.1283C16.3086 9.46699 15.9093 8.88053 15.5474 8.29407C14.8736 8.25664 14.1624 8.25664 13.4137 8.25664C12.665 8.25664 11.9538 8.25664 11.28 8.29407C10.9181 8.88053 10.5188 9.46699 10.1445 10.1283L9.13379 12L10.1445 13.8717C10.5188 14.533 10.9181 15.1195 11.28 15.7059C11.9538 15.7434 12.665 15.7434 13.4137 15.7434C14.1624 15.7434 14.8736 15.7434 15.5474 15.7059C15.9093 15.1195 16.3086 14.533 16.6829 13.8717ZM13.4137 5.48656C13.1766 5.76107 12.9271 6.04806 12.6775 6.38496H14.1499C13.9003 6.04806 13.6508 5.76107 13.4137 5.48656ZM13.4137 18.5134C13.6508 18.2389 13.9003 17.9519 14.1499 17.615H12.6775C12.9271 17.9519 13.1766 18.2389 13.4137 18.5134ZM19.1785 2.01771C18.4048 1.54355 16.6829 2.26727 14.6989 4.13895C15.3478 4.87514 15.9841 5.67372 16.5831 6.50974C17.6063 6.60956 18.617 6.7593 19.5778 6.95894C20.2141 4.28868 19.9771 2.45444 19.1785 2.01771ZM18.305 9.18L18.6669 9.81637C18.8041 9.45452 18.9414 9.09266 19.0287 8.74328C18.6918 8.66841 18.3175 8.60602 17.9307 8.54363L18.305 9.18ZM20.1143 0.383111C21.9486 1.43125 22.1482 4.18886 21.3746 7.40815C24.544 8.34399 26.8274 9.89124 26.8274 12C26.8274 14.1088 24.544 15.656 21.3746 16.5919C22.1482 19.8111 21.9486 22.5687 20.1143 23.6169C18.2925 24.665 15.8094 23.4672 13.4137 21.1837C11.018 23.4672 8.53486 24.665 6.70061 23.6169C4.87884 22.5687 4.6792 19.8111 5.45282 16.5919C2.28345 15.656 0 14.1088 0 12C0 9.89124 2.28345 8.34399 5.45282 7.40815C4.6792 4.18886 4.87884 1.43125 6.70061 0.383111C8.53486 -0.665029 11.018 0.532846 13.4137 2.81629C15.8094 0.532846 18.2925 -0.665029 20.1143 0.383111ZM19.7525 12C20.1767 12.9358 20.551 13.8717 20.863 14.82C23.4833 14.0339 24.9557 12.9109 24.9557 12C24.9557 11.0891 23.4833 9.96611 20.863 9.18C20.551 10.1283 20.1767 11.0642 19.7525 12ZM7.07495 12C6.6507 11.0642 6.27636 10.1283 5.96442 9.18C3.34407 9.96611 1.87168 11.0891 1.87168 12C1.87168 12.9109 3.34407 14.0339 5.96442 14.82C6.27636 13.8717 6.6507 12.9358 7.07495 12ZM18.305 14.82L17.9307 15.4564C18.3175 15.394 18.6918 15.3316 19.0287 15.2567C18.9414 14.9073 18.8041 14.5455 18.6669 14.1836L18.305 14.82ZM14.6989 19.8611C16.6829 21.7327 18.4048 22.4564 19.1785 21.9823C19.9771 21.5456 20.2141 19.7113 19.5778 17.0411C18.617 17.2407 17.6063 17.3904 16.5831 17.4903C15.9841 18.3263 15.3478 19.1249 14.6989 19.8611ZM8.52238 9.18L8.89671 8.54363C8.5099 8.60602 8.13557 8.66841 7.79866 8.74328C7.88601 9.09266 8.02326 9.45452 8.16052 9.81637L8.52238 9.18ZM12.1285 4.13895C10.1445 2.26727 8.42256 1.54355 7.63645 2.01771C6.85035 2.45444 6.61327 4.28868 7.24964 6.95894C8.23926 6.75661 9.23889 6.60667 10.2443 6.50974C10.8433 5.67372 11.4796 4.87514 12.1285 4.13895Z" fill="black"/>
</svg>
